<svg width="186" height="46" viewBox="0 0 186 46" fill="none" xmlns="http://www.w3.org/2000/svg">
<rect x="8" y="8" width="178" height="38" fill="#DC1E1E"/>
<rect x="0.5" y="0.5" width="177" height="37" fill="white"/>
<path d="M32.88 17.192C32.624 16.7227 32.272 16.3653 31.824 16.12C31.376 15.8747 30.8533 15.752 30.256 15.752C29.5947 15.752 29.008 15.9013 28.496 16.2C27.984 16.4987 27.584 16.9253 27.296 17.48C27.008 18.0347 26.864 18.6747 26.864 19.4C26.864 20.1467 27.008 20.7973 27.296 21.352C27.5947 21.9067 28.0053 22.3333 28.528 22.632C29.0507 22.9307 29.6587 23.08 30.352 23.08C31.2053 23.08 31.904 22.856 32.448 22.408C32.992 21.9493 33.3493 21.3147 33.52 20.504H29.68V18.792H35.728V20.744C35.5787 21.5227 35.2587 22.2427 34.768 22.904C34.2773 23.5653 33.6427 24.0987 32.864 24.504C32.096 24.8987 31.232 25.096 30.272 25.096C29.1947 25.096 28.2187 24.856 27.344 24.376C26.48 23.8853 25.7973 23.208 25.296 22.344C24.8053 21.48 24.56 20.4987 24.56 19.4C24.56 18.3013 24.8053 17.32 25.296 16.456C25.7973 15.5813 26.48 14.904 27.344 14.424C28.2187 13.9333 29.1893 13.688 30.256 13.688C31.5147 13.688 32.608 13.9973 33.536 14.616C34.464 15.224 35.104 16.0827 35.456 17.192H32.88ZM45.6253 20.376C45.6253 20.696 45.6039 20.984 45.5613 21.24H39.0813C39.1346 21.88 39.3586 22.3813 39.7533 22.744C40.1479 23.1067 40.6333 23.288 41.2093 23.288C42.0413 23.288 42.6333 22.9307 42.9853 22.216H45.4013C45.1453 23.0693 44.6546 23.7733 43.9293 24.328C43.2039 24.872 42.3133 25.144 41.2573 25.144C40.4039 25.144 39.6359 24.9573 38.9533 24.584C38.2813 24.2 37.7533 23.6613 37.3693 22.968C36.9959 22.2747 36.8092 21.4747 36.8092 20.568C36.8092 19.6507 36.9959 18.8453 37.3693 18.152C37.7426 17.4587 38.2653 16.9253 38.9373 16.552C39.6093 16.1787 40.3826 15.992 41.2573 15.992C42.0999 15.992 42.8519 16.1733 43.5133 16.536C44.1853 16.8987 44.7026 17.416 45.0653 18.088C45.4386 18.7493 45.6253 19.512 45.6253 20.376ZM43.3053 19.736C43.2946 19.16 43.0866 18.7013 42.6813 18.36C42.2759 18.008 41.7799 17.832 41.1933 17.832C40.6386 17.832 40.1693 18.0027 39.7853 18.344C39.4119 18.6747 39.1826 19.1387 39.0973 19.736H43.3053ZM49.8683 17.976V22.264C49.8683 22.5627 49.9376 22.7813 50.0763 22.92C50.2256 23.048 50.4709 23.112 50.8123 23.112H51.8523V25H50.4443C48.5563 25 47.6123 24.0827 47.6123 22.248V17.976H46.5563V16.136H47.6123V13.944H49.8683V16.136H51.8523V17.976H49.8683ZM58.4119 15.08C58.0172 15.08 57.6865 14.9573 57.4199 14.712C57.1639 14.456 57.0359 14.1413 57.0359 13.768C57.0359 13.3947 57.1639 13.0853 57.4199 12.84C57.6865 12.584 58.0172 12.456 58.4119 12.456C58.8065 12.456 59.1319 12.584 59.3879 12.84C59.6545 13.0853 59.7879 13.3947 59.7879 13.768C59.7879 14.1413 59.6545 14.456 59.3879 14.712C59.1319 14.9573 58.8065 15.08 58.4119 15.08ZM59.5159 16.136V25H57.2759V16.136H59.5159ZM66.641 16.008C67.697 16.008 68.5503 16.344 69.201 17.016C69.8517 17.6773 70.177 18.6053 70.177 19.8V25H67.937V20.104C67.937 19.4 67.761 18.8613 67.409 18.488C67.057 18.104 66.577 17.912 65.969 17.912C65.3503 17.912 64.8597 18.104 64.497 18.488C64.145 18.8613 63.969 19.4 63.969 20.104V25H61.729V16.136H63.969V17.24C64.2677 16.856 64.6463 16.5573 65.105 16.344C65.5743 16.12 66.0863 16.008 66.641 16.008ZM83.7196 13.832V15.64H80.7436V25H78.5036V15.64H75.5276V13.832H83.7196ZM89.29 25.144C88.4367 25.144 87.6687 24.9573 86.986 24.584C86.3033 24.2 85.7647 23.6613 85.37 22.968C84.986 22.2747 84.794 21.4747 84.794 20.568C84.794 19.6613 84.9913 18.8613 85.386 18.168C85.7913 17.4747 86.3407 16.9413 87.034 16.568C87.7273 16.184 88.5007 15.992 89.354 15.992C90.2073 15.992 90.9807 16.184 91.674 16.568C92.3673 16.9413 92.9113 17.4747 93.306 18.168C93.7113 18.8613 93.914 19.6613 93.914 20.568C93.914 21.4747 93.706 22.2747 93.29 22.968C92.8847 23.6613 92.33 24.2 91.626 24.584C90.9327 24.9573 90.154 25.144 89.29 25.144ZM89.29 23.192C89.6953 23.192 90.074 23.096 90.426 22.904C90.7887 22.7013 91.0767 22.4027 91.29 22.008C91.5033 21.6133 91.61 21.1333 91.61 20.568C91.61 19.7253 91.386 19.08 90.938 18.632C90.5007 18.1733 89.962 17.944 89.322 17.944C88.682 17.944 88.1433 18.1733 87.706 18.632C87.2793 19.08 87.066 19.7253 87.066 20.568C87.066 21.4107 87.274 22.0613 87.69 22.52C88.1167 22.968 88.65 23.192 89.29 23.192ZM103.925 16.136V25H101.669V23.88C101.381 24.264 101.002 24.568 100.533 24.792C100.074 25.0053 99.5731 25.112 99.0291 25.112C98.3358 25.112 97.7225 24.968 97.1891 24.68C96.6558 24.3813 96.2345 23.9493 95.9251 23.384C95.6265 22.808 95.4771 22.1253 95.4771 21.336V16.136H97.7171V21.016C97.7171 21.72 97.8931 22.264 98.2451 22.648C98.5971 23.0213 99.0771 23.208 99.6851 23.208C100.304 23.208 100.789 23.0213 101.141 22.648C101.493 22.264 101.669 21.72 101.669 21.016V16.136H103.925ZM105.559 20.568C105.559 19.6507 105.746 18.8507 106.119 18.168C106.493 17.4747 107.01 16.9413 107.671 16.568C108.333 16.184 109.09 15.992 109.943 15.992C111.042 15.992 111.949 16.2693 112.663 16.824C113.389 17.368 113.874 18.136 114.119 19.128H111.703C111.575 18.744 111.357 18.4453 111.047 18.232C110.749 18.008 110.375 17.896 109.927 17.896C109.287 17.896 108.781 18.1307 108.407 18.6C108.034 19.0587 107.847 19.7147 107.847 20.568C107.847 21.4107 108.034 22.0667 108.407 22.536C108.781 22.9947 109.287 23.224 109.927 23.224C110.834 23.224 111.426 22.8187 111.703 22.008H114.119C113.874 22.968 113.389 23.7307 112.663 24.296C111.938 24.8613 111.031 25.144 109.943 25.144C109.09 25.144 108.333 24.9573 107.671 24.584C107.01 24.2 106.493 23.6667 106.119 22.984C105.746 22.2907 105.559 21.4853 105.559 20.568ZM120.752 16.008C121.424 16.008 122.022 16.1573 122.544 16.456C123.067 16.744 123.472 17.176 123.76 17.752C124.059 18.3173 124.208 19 124.208 19.8V25H121.968V20.104C121.968 19.4 121.792 18.8613 121.44 18.488C121.088 18.104 120.608 17.912 120 17.912C119.382 17.912 118.891 18.104 118.528 18.488C118.176 18.8613 118 19.4 118 20.104V25H115.76V13.16H118V17.24C118.288 16.856 118.672 16.5573 119.152 16.344C119.632 16.12 120.166 16.008 120.752 16.008Z" fill="#DC1E1E"/>
<path fill-rule="evenodd" clip-rule="evenodd" d="M147.4 27.3333H140.592C137.65 27.3333 135.667 25.4408 135.667 22.6167V15.3917C135.667 12.5667 137.65 10.6667 140.592 10.6667H147.4C150.35 10.6667 152.333 12.5667 152.333 15.3917V22.6167C152.333 25.4408 150.35 27.3333 147.4 27.3333ZM145.892 18.375H140.6C140.25 18.375 139.975 18.6583 139.975 19C139.975 19.35 140.25 19.625 140.6 19.625H145.892L143.825 21.6833C143.708 21.8 143.642 21.9667 143.642 22.125C143.642 22.2825 143.708 22.4417 143.825 22.5667C144.067 22.8083 144.467 22.8083 144.708 22.5667L147.85 19.4417C148.083 19.2083 148.083 18.7917 147.85 18.5583L144.708 15.4333C144.467 15.1917 144.067 15.1917 143.825 15.4333C143.583 15.6833 143.583 16.075 143.825 16.325L145.892 18.375Z" fill="#DC1E1E"/>
<rect x="0.5" y="0.5" width="177" height="37" stroke="#DC1E1E"/>
</svg>
