<svg width="227" height="46" viewBox="0 0 227 46" fill="none" xmlns="http://www.w3.org/2000/svg">
<rect x="8" y="8" width="219" height="38" fill="#3EADC3"/>
<rect x="0.5" y="0.5" width="217" height="37" fill="white"/>
<path d="M37.28 13.832V25H35.04V17.736L32.048 25H30.352L27.344 17.736V25H25.104V13.832H27.648L31.2 22.136L34.752 13.832H37.28ZM43.4306 25.144C42.5773 25.144 41.8093 24.9573 41.1266 24.584C40.444 24.2 39.9053 23.6613 39.5106 22.968C39.1266 22.2747 38.9346 21.4747 38.9346 20.568C38.9346 19.6613 39.132 18.8613 39.5266 18.168C39.932 17.4747 40.4813 16.9413 41.1746 16.568C41.868 16.184 42.6413 15.992 43.4946 15.992C44.348 15.992 45.1213 16.184 45.8146 16.568C46.508 16.9413 47.052 17.4747 47.4466 18.168C47.852 18.8613 48.0546 19.6613 48.0546 20.568C48.0546 21.4747 47.8466 22.2747 47.4306 22.968C47.0253 23.6613 46.4706 24.2 45.7666 24.584C45.0733 24.9573 44.2946 25.144 43.4306 25.144ZM43.4306 23.192C43.836 23.192 44.2146 23.096 44.5666 22.904C44.9293 22.7013 45.2173 22.4027 45.4306 22.008C45.644 21.6133 45.7506 21.1333 45.7506 20.568C45.7506 19.7253 45.5266 19.08 45.0786 18.632C44.6413 18.1733 44.1026 17.944 43.4626 17.944C42.8226 17.944 42.284 18.1733 41.8466 18.632C41.42 19.08 41.2066 19.7253 41.2066 20.568C41.2066 21.4107 41.4146 22.0613 41.8306 22.52C42.2573 22.968 42.7906 23.192 43.4306 23.192ZM51.9378 17.512C52.2258 17.0427 52.5991 16.6747 53.0578 16.408C53.5271 16.1413 54.0604 16.008 54.6578 16.008V18.36H54.0658C53.3618 18.36 52.8284 18.5253 52.4658 18.856C52.1138 19.1867 51.9378 19.7627 51.9378 20.584V25H49.6978V16.136H51.9378V17.512ZM64.4065 20.376C64.4065 20.696 64.3852 20.984 64.3425 21.24H57.8625C57.9158 21.88 58.1398 22.3813 58.5345 22.744C58.9292 23.1067 59.4145 23.288 59.9905 23.288C60.8225 23.288 61.4145 22.9307 61.7665 22.216H64.1825C63.9265 23.0693 63.4358 23.7733 62.7105 24.328C61.9852 24.872 61.0945 25.144 60.0385 25.144C59.1852 25.144 58.4172 24.9573 57.7345 24.584C57.0625 24.2 56.5345 23.6613 56.1505 22.968C55.7772 22.2747 55.5905 21.4747 55.5905 20.568C55.5905 19.6507 55.7772 18.8453 56.1505 18.152C56.5238 17.4587 57.0465 16.9253 57.7185 16.552C58.3905 16.1787 59.1638 15.992 60.0385 15.992C60.8812 15.992 61.6332 16.1733 62.2945 16.536C62.9665 16.8987 63.4838 17.416 63.8465 18.088C64.2198 18.7493 64.4065 19.512 64.4065 20.376ZM62.0865 19.736C62.0758 19.16 61.8678 18.7013 61.4625 18.36C61.0572 18.008 60.5612 17.832 59.9745 17.832C59.4198 17.832 58.9505 18.0027 58.5665 18.344C58.1932 18.6747 57.9638 19.1387 57.8785 19.736H62.0865ZM72.094 13.832V25H69.854V13.832H72.094ZM79.2191 16.008C80.2751 16.008 81.1285 16.344 81.7791 17.016C82.4298 17.6773 82.7551 18.6053 82.7551 19.8V25H80.5151V20.104C80.5151 19.4 80.3391 18.8613 79.9871 18.488C79.6351 18.104 79.1551 17.912 78.5471 17.912C77.9285 17.912 77.4378 18.104 77.0751 18.488C76.7231 18.8613 76.5471 19.4 76.5471 20.104V25H74.3071V16.136H76.5471V17.24C76.8458 16.856 77.2245 16.5573 77.6831 16.344C78.1525 16.12 78.6645 16.008 79.2191 16.008ZM88.9493 17.976H87.3973V25H85.1253V17.976H84.1173V16.136H85.1253V15.688C85.1253 14.6 85.4346 13.8 86.0533 13.288C86.6719 12.776 87.6053 12.536 88.8533 12.568V14.456C88.3093 14.4453 87.9306 14.536 87.7173 14.728C87.5039 14.92 87.3973 15.2667 87.3973 15.768V16.136H88.9493V17.976ZM94.3369 25.144C93.4835 25.144 92.7155 24.9573 92.0329 24.584C91.3502 24.2 90.8115 23.6613 90.4169 22.968C90.0329 22.2747 89.8409 21.4747 89.8409 20.568C89.8409 19.6613 90.0382 18.8613 90.4329 18.168C90.8382 17.4747 91.3875 16.9413 92.0809 16.568C92.7742 16.184 93.5475 15.992 94.4009 15.992C95.2542 15.992 96.0275 16.184 96.7209 16.568C97.4142 16.9413 97.9582 17.4747 98.3529 18.168C98.7582 18.8613 98.9609 19.6613 98.9609 20.568C98.9609 21.4747 98.7529 22.2747 98.3369 22.968C97.9315 23.6613 97.3769 24.2 96.6729 24.584C95.9795 24.9573 95.2009 25.144 94.3369 25.144ZM94.3369 23.192C94.7422 23.192 95.1209 23.096 95.4729 22.904C95.8355 22.7013 96.1235 22.4027 96.3369 22.008C96.5502 21.6133 96.6569 21.1333 96.6569 20.568C96.6569 19.7253 96.4329 19.08 95.9849 18.632C95.5475 18.1733 95.0089 17.944 94.3689 17.944C93.7289 17.944 93.1902 18.1733 92.7529 18.632C92.3262 19.08 92.1129 19.7253 92.1129 20.568C92.1129 21.4107 92.3209 22.0613 92.7369 22.52C93.1635 22.968 93.6969 23.192 94.3369 23.192ZM102.844 17.512C103.132 17.0427 103.505 16.6747 103.964 16.408C104.433 16.1413 104.967 16.008 105.564 16.008V18.36H104.972C104.268 18.36 103.735 18.5253 103.372 18.856C103.02 19.1867 102.844 19.7627 102.844 20.584V25H100.604V16.136H102.844V17.512ZM118.081 16.008C119.169 16.008 120.043 16.344 120.705 17.016C121.377 17.6773 121.713 18.6053 121.713 19.8V25H119.473V20.104C119.473 19.4107 119.297 18.8827 118.945 18.52C118.593 18.1467 118.113 17.96 117.505 17.96C116.897 17.96 116.411 18.1467 116.049 18.52C115.697 18.8827 115.521 19.4107 115.521 20.104V25H113.281V20.104C113.281 19.4107 113.105 18.8827 112.753 18.52C112.401 18.1467 111.921 17.96 111.313 17.96C110.694 17.96 110.203 18.1467 109.841 18.52C109.489 18.8827 109.313 19.4107 109.313 20.104V25H107.073V16.136H109.313V17.208C109.601 16.8347 109.969 16.5413 110.417 16.328C110.875 16.1147 111.377 16.008 111.921 16.008C112.614 16.008 113.233 16.1573 113.777 16.456C114.321 16.744 114.742 17.16 115.041 17.704C115.329 17.192 115.745 16.7813 116.289 16.472C116.843 16.1627 117.441 16.008 118.081 16.008ZM123.262 20.536C123.262 19.64 123.438 18.8453 123.79 18.152C124.153 17.4587 124.638 16.9253 125.246 16.552C125.865 16.1787 126.553 15.992 127.31 15.992C127.972 15.992 128.548 16.1253 129.038 16.392C129.54 16.6587 129.94 16.9947 130.238 17.4V16.136H132.494V25H130.238V23.704C129.95 24.12 129.55 24.4667 129.038 24.744C128.537 25.0107 127.956 25.144 127.294 25.144C126.548 25.144 125.865 24.952 125.246 24.568C124.638 24.184 124.153 23.6453 123.79 22.952C123.438 22.248 123.262 21.4427 123.262 20.536ZM130.238 20.568C130.238 20.024 130.132 19.56 129.918 19.176C129.705 18.7813 129.417 18.4827 129.054 18.28C128.692 18.0667 128.302 17.96 127.886 17.96C127.47 17.96 127.086 18.0613 126.734 18.264C126.382 18.4667 126.094 18.7653 125.87 19.16C125.657 19.544 125.55 20.0027 125.55 20.536C125.55 21.0693 125.657 21.5387 125.87 21.944C126.094 22.3387 126.382 22.6427 126.734 22.856C127.097 23.0693 127.481 23.176 127.886 23.176C128.302 23.176 128.692 23.0747 129.054 22.872C129.417 22.6587 129.705 22.36 129.918 21.976C130.132 21.5813 130.238 21.112 130.238 20.568ZM137.29 17.976V22.264C137.29 22.5627 137.359 22.7813 137.498 22.92C137.647 23.048 137.893 23.112 138.234 23.112H139.274V25H137.866C135.978 25 135.034 24.0827 135.034 22.248V17.976H133.978V16.136H135.034V13.944H137.29V16.136H139.274V17.976H137.29ZM142.021 15.08C141.627 15.08 141.296 14.9573 141.029 14.712C140.773 14.456 140.645 14.1413 140.645 13.768C140.645 13.3947 140.773 13.0853 141.029 12.84C141.296 12.584 141.627 12.456 142.021 12.456C142.416 12.456 142.741 12.584 142.997 12.84C143.264 13.0853 143.397 13.3947 143.397 13.768C143.397 14.1413 143.264 14.456 142.997 14.712C142.741 14.9573 142.416 15.08 142.021 15.08ZM143.125 16.136V25H140.885V16.136H143.125ZM149.274 25.144C148.421 25.144 147.653 24.9573 146.97 24.584C146.288 24.2 145.749 23.6613 145.354 22.968C144.97 22.2747 144.778 21.4747 144.778 20.568C144.778 19.6613 144.976 18.8613 145.37 18.168C145.776 17.4747 146.325 16.9413 147.018 16.568C147.712 16.184 148.485 15.992 149.338 15.992C150.192 15.992 150.965 16.184 151.658 16.568C152.352 16.9413 152.896 17.4747 153.29 18.168C153.696 18.8613 153.898 19.6613 153.898 20.568C153.898 21.4747 153.69 22.2747 153.274 22.968C152.869 23.6613 152.314 24.2 151.61 24.584C150.917 24.9573 150.138 25.144 149.274 25.144ZM149.274 23.192C149.68 23.192 150.058 23.096 150.41 22.904C150.773 22.7013 151.061 22.4027 151.274 22.008C151.488 21.6133 151.594 21.1333 151.594 20.568C151.594 19.7253 151.37 19.08 150.922 18.632C150.485 18.1733 149.946 17.944 149.306 17.944C148.666 17.944 148.128 18.1733 147.69 18.632C147.264 19.08 147.05 19.7253 147.05 20.568C147.05 21.4107 147.258 22.0613 147.674 22.52C148.101 22.968 148.634 23.192 149.274 23.192ZM160.454 16.008C161.51 16.008 162.363 16.344 163.014 17.016C163.664 17.6773 163.99 18.6053 163.99 19.8V25H161.75V20.104C161.75 19.4 161.574 18.8613 161.222 18.488C160.87 18.104 160.39 17.912 159.782 17.912C159.163 17.912 158.672 18.104 158.31 18.488C157.958 18.8613 157.782 19.4 157.782 20.104V25H155.542V16.136H157.782V17.24C158.08 16.856 158.459 16.5573 158.918 16.344C159.387 16.12 159.899 16.008 160.454 16.008Z" fill="#3EADC3"/>
<path fill-rule="evenodd" clip-rule="evenodd" d="M187.4 27.3334H180.592C177.65 27.3334 175.667 25.4409 175.667 22.6167V15.3917C175.667 12.5667 177.65 10.6667 180.592 10.6667H187.4C190.35 10.6667 192.333 12.5667 192.333 15.3917V22.6167C192.333 25.4409 190.35 27.3334 187.4 27.3334ZM185.892 18.375H180.6C180.25 18.375 179.975 18.6584 179.975 19C179.975 19.35 180.25 19.625 180.6 19.625H185.892L183.825 21.6834C183.708 21.8 183.642 21.9667 183.642 22.125C183.642 22.2825 183.708 22.4417 183.825 22.5667C184.067 22.8084 184.467 22.8084 184.708 22.5667L187.85 19.4417C188.083 19.2084 188.083 18.7917 187.85 18.5584L184.708 15.4334C184.467 15.1917 184.067 15.1917 183.825 15.4334C183.583 15.6834 183.583 16.075 183.825 16.325L185.892 18.375Z" fill="#3EADC3"/>
<rect x="0.5" y="0.5" width="217" height="37" stroke="#3EADC3"/>
</svg>
