<svg width="33" height="33" viewBox="0 0 33 33" fill="none" xmlns="http://www.w3.org/2000/svg">
<circle cx="16.5" cy="16.5" r="16.5" fill="#3EADC3"/>
<path d="M21.4389 17.74C21.2447 17.9282 21.1554 18.2005 21.1997 18.4675L21.8664 22.1575C21.9227 22.4702 21.7907 22.7868 21.5289 22.9675C21.2724 23.155 20.9312 23.1775 20.6514 23.0275L17.3297 21.295C17.2142 21.2335 17.0859 21.2005 16.9547 21.1968H16.7514C16.6809 21.2073 16.6119 21.2297 16.5489 21.2642L13.2264 23.005C13.0622 23.0875 12.8762 23.1168 12.6939 23.0875C12.2499 23.0035 11.9537 22.5805 12.0264 22.1343L12.6939 18.4443C12.7382 18.175 12.6489 17.9012 12.4547 17.71L9.74641 15.085C9.51991 14.8652 9.44116 14.5353 9.54466 14.2375C9.64516 13.9405 9.90166 13.7238 10.2114 13.675L13.9389 13.1342C14.2224 13.105 14.4714 12.9325 14.5989 12.6775L16.2414 9.31C16.2804 9.235 16.3307 9.166 16.3914 9.1075L16.4589 9.055C16.4942 9.016 16.5347 8.98375 16.5797 8.9575L16.6614 8.9275L16.7889 8.875H17.1047C17.3867 8.90425 17.6349 9.073 17.7647 9.325L19.4289 12.6775C19.5489 12.9227 19.7822 13.093 20.0514 13.1342L23.7789 13.675C24.0939 13.72 24.3572 13.9375 24.4614 14.2375C24.5597 14.5382 24.4749 14.8682 24.2439 15.085L21.4389 17.74Z" fill="white"/>
</svg>
