<svg width="21" height="21" viewBox="0 0 21 21" fill="none" xmlns="http://www.w3.org/2000/svg">
<path fill-rule="evenodd" clip-rule="evenodd" d="M6.51493 2.6145H13.4991C16.0733 2.6145 17.5066 4.09784 17.5066 6.6395V15.2478C17.5066 17.8312 16.0733 19.2812 13.4991 19.2812H6.51493C3.98159 19.2812 2.50659 17.8312 2.50659 15.2478V6.6395C2.50659 4.09784 3.98159 2.6145 6.51493 2.6145ZM6.73993 6.49784V6.4895H9.23076C9.58992 6.4895 9.88159 6.78117 9.88159 7.13867C9.88159 7.50617 9.58992 7.79784 9.23076 7.79784H6.73993C6.38076 7.79784 6.08993 7.50617 6.08993 7.14784C6.08993 6.7895 6.38076 6.49784 6.73993 6.49784ZM6.73993 11.5645H13.2733C13.6316 11.5645 13.9233 11.2728 13.9233 10.9145C13.9233 10.5562 13.6316 10.2637 13.2733 10.2637H6.73993C6.38076 10.2637 6.08993 10.5562 6.08993 10.9145C6.08993 11.2728 6.38076 11.5645 6.73993 11.5645ZM6.73992 15.3728H13.2733C13.6058 15.3395 13.8566 15.0553 13.8566 14.7228C13.8566 14.3812 13.6058 14.0978 13.2733 14.0645H6.73992C6.48992 14.0395 6.24826 14.1562 6.11492 14.3728C5.98159 14.5812 5.98159 14.8562 6.11492 15.0728C6.24826 15.2812 6.48992 15.4062 6.73992 15.3728Z" fill="#3EADC3"/>
</svg>
